<svg id="Capa_1" data-name="Capa 1" xmlns="http://www.w3.org/2000/svg" viewBox="0 0 94.4 90"><defs><style>.cls-1{fill:#47b593;}.cls-2{fill:#ffce14;}.cls-3{fill:#e8355d;}.cls-4,.cls-5{stroke:#ffce14;stroke-miterlimit:10;}.cls-5{fill:none;}.cls-6,.cls-7{fill:#fff;}.cls-7{opacity:0.5;isolation:isolate;}</style></defs><g id="Grupo_84" data-name="Grupo 84"><g id="Grupo_9" data-name="Grupo 9"><g id="Grupo_83" data-name="Grupo 83"><g id="Grupo_81" data-name="Grupo 81"><path id="Trazado_102" data-name="Trazado 102" d="M29,89.8a1.9,1.9,0,0,1-1.3-.5l-1.4-1.1a11.1,11.1,0,0,1-5.7,1.3,15.2,15.2,0,0,1-4.2-.6A12,12,0,0,1,13,86.8a9.5,9.5,0,0,1-2.2-3.6,15.3,15.3,0,0,1,0-9.9A9.5,9.5,0,0,1,13,69.7a12,12,0,0,1,3.4-2.1,15.2,15.2,0,0,1,4.2-.6,14.7,14.7,0,0,1,4.2.6,9.3,9.3,0,0,1,5.7,5.7,16.9,16.9,0,0,1,.8,5,13.7,13.7,0,0,1-1.4,6.2l1.1.9a2.1,2.1,0,0,1,.8,1.7,3.8,3.8,0,0,1-.8,1.7A2.6,2.6,0,0,1,29,89.8ZM20.1,72.4l-1.3.3a4,4,0,0,0-1.5,1,5.2,5.2,0,0,0-1,1.8h0a8.2,8.2,0,0,0-.4,2.6,12.6,12.6,0,0,0,.4,2.8l.4,1,.6.8.4.3h0a3.9,3.9,0,0,0,2.8,1.2,4,4,0,0,0,2.2-.6h0A5.6,5.6,0,0,0,24.8,81h.1a8.5,8.5,0,0,0,.4-1.7h0v-.6h0a8.4,8.4,0,0,0-.4-2.7,4,4,0,0,0-1-1.8,3,3,0,0,0-1.4-1,5.8,5.8,0,0,0-1.9-.3h-.5Z" transform="translate(-10 -13.6)"/><path id="Trazado_103" data-name="Trazado 103" class="cls-1" d="M30.4,86l-1.7-1.3a11.4,11.4,0,0,0,1.7-6.4,12.6,12.6,0,0,0-.8-4.7,8.3,8.3,0,0,0-2-3.2,7.7,7.7,0,0,0-3.1-1.9,12.7,12.7,0,0,0-3.9-.6,13.2,13.2,0,0,0-3.9.6,7.3,7.3,0,0,0-3,1.9,8.5,8.5,0,0,0-2.1,3.2,16.4,16.4,0,0,0,0,9.3,8.5,8.5,0,0,0,2.1,3.2,7.3,7.3,0,0,0,3,1.9,13.2,13.2,0,0,0,3.9.6,9.7,9.7,0,0,0,5.8-1.5l1.8,1.5a1.1,1.1,0,0,0,.8.3,2.1,2.1,0,0,0,1.3-.7,2.3,2.3,0,0,0,.6-1.2A1.4,1.4,0,0,0,30.4,86Zm-4.2-7.7V79h0v.2h0a11.7,11.7,0,0,1-.5,2h0a6.4,6.4,0,0,1-2.5,3.1h0a5,5,0,0,1-2.7.8,4.9,4.9,0,0,1-3.4-1.4c-.2-.1-.3-.3-.4-.4a3.6,3.6,0,0,1-.7-1,3.7,3.7,0,0,1-.5-1.1,7.8,7.8,0,0,1-.4-3,9.2,9.2,0,0,1,.3-2.9v-.2a4.5,4.5,0,0,1,1.2-2.1,4.8,4.8,0,0,1,1.7-1.2l1.7-.4h.6a5.2,5.2,0,0,1,2.1.4,4.4,4.4,0,0,1,1.8,1.2,5.5,5.5,0,0,1,1.2,2.1,8,8,0,0,1,.4,3.1Z" transform="translate(-10 -13.6)"/><path id="Trazado_104" data-name="Trazado 104" d="M49.6,89.5c-2.7,0-2.9-1.6-2.9-2.2v-17a2.8,2.8,0,0,1,2.6-3H61c.5,0,2.2.2,2.2,2.6s-1.7,2.7-2.2,2.7H52.5v3.3h6.6c.5,0,2.2.2,2.2,2.7s-1.7,2.6-2.2,2.6H52.5v6.1C52.5,87.9,52.2,89.5,49.6,89.5Z" transform="translate(-10 -13.6)"/><path id="Trazado_105" data-name="Trazado 105" class="cls-2" d="M47.6,70.3a1.9,1.9,0,0,1,1.8-2.1H61c.9,0,1.3.6,1.3,1.7s-.4,1.8-1.3,1.8H51.6v5.1h7.5c.9,0,1.3.6,1.3,1.8s-.4,1.7-1.3,1.7H51.6v7c0,.9-.7,1.3-2,1.3s-2-.4-2-1.3Z" transform="translate(-10 -13.6)"/><path id="Trazado_106" data-name="Trazado 106" d="M80.9,89.5a6.4,6.4,0,0,1-2-.3,2.5,2.5,0,0,1-1.3-1.4l-1.1-3H69.3l-1.1,3a2.5,2.5,0,0,1-1.3,1.4,6.4,6.4,0,0,1-2,.3,2.4,2.4,0,0,1-2-.6,2.7,2.7,0,0,1-.7-1.4,2.4,2.4,0,0,1,.2-.8L69,69.3a3.2,3.2,0,0,1,1.8-2,7.6,7.6,0,0,1,2.1-.3,5.4,5.4,0,0,1,2.2.4,2.7,2.7,0,0,1,1.7,1.9l6.6,17.4a2.4,2.4,0,0,1,.2.8,2.1,2.1,0,0,1-.7,1.4A2.5,2.5,0,0,1,80.9,89.5Zm-6.3-9.9-1.7-4.5-1.6,4.5Z" transform="translate(-10 -13.6)"/><path id="Trazado_107" data-name="Trazado 107" class="cls-2" d="M69.9,69.6a1.9,1.9,0,0,1,1.2-1.4,5.7,5.7,0,0,1,1.8-.3,5.8,5.8,0,0,1,1.9.3A2.1,2.1,0,0,1,76,69.6L82.6,87c0,.2.1.3.1.5a.8.8,0,0,1-.4.7,1.8,1.8,0,0,1-1.4.4,4.1,4.1,0,0,1-1.6-.3,1.4,1.4,0,0,1-.9-.8l-1.3-3.7H68.7l-1.3,3.7a1.4,1.4,0,0,1-.9.8,4.1,4.1,0,0,1-1.6.3,1.8,1.8,0,0,1-1.4-.4c-.2-.1-.3-.4-.4-.7s.1-.3.1-.5Zm6,10.9-2.9-8-3,8Z" transform="translate(-10 -13.6)"/><path id="Trazado_108" data-name="Trazado 108" d="M101.7,89.5a5.2,5.2,0,0,1-1.8-.3,2.8,2.8,0,0,1-1.5-1.1L96,83.9a2.4,2.4,0,0,0-1.5-1.3l-1.1-.3H91.8v5c0,.6-.2,2.2-2.8,2.2s-3-1.6-3-2.2v-17a3,3,0,0,1,2.7-3H95a24.3,24.3,0,0,1,3.8.3,10.8,10.8,0,0,1,2.9,1.3,5.5,5.5,0,0,1,1.8,2.4,6.6,6.6,0,0,1,.6,3.4,7.1,7.1,0,0,1-1.2,4.5,5.7,5.7,0,0,1-2.2,1.9l.7.9,2.7,4.7a1.7,1.7,0,0,1-.2,2.2A3.3,3.3,0,0,1,101.7,89.5ZM95,77a4.4,4.4,0,0,0,2.5-.6c.2-.1.7-.4.7-1.7s-.5-1.5-.7-1.6a6.6,6.6,0,0,0-2.5-.5H91.8V77Z" transform="translate(-10 -13.6)"/><path id="Trazado_109" data-name="Trazado 109" class="cls-2" d="M103.3,87.1a.8.8,0,0,1,0,1.1,2.3,2.3,0,0,1-1.6.4l-1.5-.2a2,2,0,0,1-1-.8l-2.4-4.1a3.1,3.1,0,0,0-.9-1.1,4.1,4.1,0,0,0-1.1-.7l-1.4-.3H90.9v5.9c0,.9-.6,1.3-1.9,1.3s-2.1-.4-2.1-1.3v-17a2.1,2.1,0,0,1,1.8-2.1H95a21.9,21.9,0,0,1,3.6.3,7.1,7.1,0,0,1,2.5,1.1,4.5,4.5,0,0,1,1.6,2,6.5,6.5,0,0,1,.5,3.1,7,7,0,0,1-1,4A5.8,5.8,0,0,1,99,80.8a4.4,4.4,0,0,1,1.6,1.7ZM90.9,71.7v6.2H95a5.3,5.3,0,0,0,3-.7,2.7,2.7,0,0,0,1.1-2.5A2.4,2.4,0,0,0,98,72.4a6.3,6.3,0,0,0-3-.7Z" transform="translate(-10 -13.6)"/><path id="Trazado_110" data-name="Trazado 110" d="M36.8,81.8A2.7,2.7,0,0,1,34,79a2.8,2.8,0,0,1,2.8-2.9h3.5A2.9,2.9,0,0,1,43.1,79a2.8,2.8,0,0,1-2.8,2.8Z" transform="translate(-10 -13.6)"/><path id="Trazado_111" data-name="Trazado 111" class="cls-3" d="M36.8,80.9A1.8,1.8,0,0,1,34.9,79a1.9,1.9,0,0,1,1.9-2h3.5a1.9,1.9,0,0,1,1.9,2,1.8,1.8,0,0,1-1.9,1.9Z" transform="translate(-10 -13.6)"/><path id="Trazado_112" data-name="Trazado 112" class="cls-4" d="M98.4,78.6" transform="translate(-10 -13.6)"/><path id="Trazado_113" data-name="Trazado 113" class="cls-5" d="M98.4,78.6" transform="translate(-10 -13.6)"/></g><g id="Grupo_82" data-name="Grupo 82"><path id="Trazado_114" data-name="Trazado 114" d="M34.6,95.6a.3.3,0,0,1,.5.3h0v7.3a.3.3,0,0,1-.1.2h-.7c-.1,0-.1-.1-.1-.2V96.8l-2.5,6.4a.7.7,0,0,1-.8.3l-.3-.3-2.5-6.4v6.5c0,.1,0,.2-.1.2h-.7c-.1,0-.1-.1-.1-.2V96c0-.2.1-.4.3-.4h.8l.4.2,2.4,6.4,2.5-6.4.3-.2Z" transform="translate(-10 -13.6)"/><path id="Trazado_115" data-name="Trazado 115" d="M38.3,103.5a.5.5,0,0,1-.5-.4h0V96a.4.4,0,0,1,.4-.4h4.9c.1,0,.2,0,.2.1a.5.5,0,0,1,0,.6c0,.1-.1.1-.2.1H38.8v2.7h3.5c.1,0,.2,0,.2.1a.5.5,0,0,1,0,.6c0,.1-.1.1-.2.1H38.8v2.7h4.5a.4.4,0,0,1,.1.3c0,.2,0,.3-.1.4h-5Z" transform="translate(-10 -13.6)"/><path id="Trazado_116" data-name="Trazado 116" d="M51.6,95.8l.3-.3h.8l.3.3,2.9,7.4h0c0,.1,0,.2-.1.2h-.7l-.2-.2-.7-1.9H50.4l-.7,1.9a.2.2,0,0,1-.2.2h-.7a.3.3,0,0,1-.1-.2h.1Zm2.2,4.7-1.5-4-1.5,4Z" transform="translate(-10 -13.6)"/><path id="Trazado_117" data-name="Trazado 117" d="M59.6,103.3c.1.1,0,.2-.1.2h-.7a.3.3,0,0,1-.1-.2v-2.7L56,95.9a.2.2,0,0,1,0-.3c.1-.1.2-.2.4-.1h.3l.3.3,2.2,3.8,2.2-3.9c.1,0,.1-.1.2-.2H62c.2-.1.3,0,.4.1a.2.2,0,0,1,0,.3l-2.8,4.7Z" transform="translate(-10 -13.6)"/><path id="Trazado_118" data-name="Trazado 118" d="M64.4,95.8a.4.4,0,0,1,.1-.3h.7a.4.4,0,0,1,.1.3v4.1a6.8,6.8,0,0,0,.2,1.4,3.6,3.6,0,0,0,.4.9l.7.4h1.8l.7-.4a1.8,1.8,0,0,0,.4-.9,3.4,3.4,0,0,0,.2-1.4V95.8a.4.4,0,0,1,.1-.3h.7a.4.4,0,0,1,.1.3v4.1a5.5,5.5,0,0,1-.2,1.8,2.4,2.4,0,0,1-.6,1.1,2.1,2.1,0,0,1-1,.6,3.9,3.9,0,0,1-2.6,0,2.1,2.1,0,0,1-1-.6,2.4,2.4,0,0,1-.6-1.1,5.5,5.5,0,0,1-.2-1.8Z" transform="translate(-10 -13.6)"/><path id="Trazado_119" data-name="Trazado 119" d="M73.8,103.5a.4.4,0,0,1-.4-.4h0V96c-.1-.2.1-.4.3-.4h2.6a3.9,3.9,0,0,1,1.5.2,3.7,3.7,0,0,1,1.2.7,2.9,2.9,0,0,1,.7,1.2,5.5,5.5,0,0,1,0,3.6,3.3,3.3,0,0,1-.7,1.3l-1.2.7-1.5.2Zm2.5-.9a1.8,1.8,0,0,0,1-.2,1.3,1.3,0,0,0,.9-.5,1.8,1.8,0,0,0,.6-.9,4.8,4.8,0,0,0,0-2.9,2.1,2.1,0,0,0-.6-1,1.9,1.9,0,0,0-.9-.5l-1-.2h-2v6.2Z" transform="translate(-10 -13.6)"/><path id="Trazado_120" data-name="Trazado 120" d="M84.2,95.8l.2-.3h.8q.3.1.3.3l2.9,7.4h0c0,.1,0,.2-.1.2h-.7l-.2-.2-.7-1.9H83l-.8,1.9a.2.2,0,0,1-.2.2h-.7a.3.3,0,0,1-.1-.2h.1Zm2.1,4.7-1.5-4-1.5,4Z" transform="translate(-10 -13.6)"/></g></g></g><g id="Grupo_7" data-name="Grupo 7"><path id="Trazado_31" data-name="Trazado 31" class="cls-3" d="M102,32A16.1,16.1,0,0,1,86,48.1H48.4a16.1,16.1,0,1,0,0-32.2H86A16.1,16.1,0,0,1,102,32Z" transform="translate(-10 -13.6)"/><g id="Grupo_6" data-name="Grupo 6"><path id="Trazado_32" data-name="Trazado 32" class="cls-6" d="M32.5,49.3l-1.1,1.2-1.8,1.8,1.8-1.8Z" transform="translate(-10 -13.6)"/><path id="Trazado_33" data-name="Trazado 33" class="cls-6" d="M34.2,49.3Z" transform="translate(-10 -13.6)"/><path id="Trazado_34" data-name="Trazado 34" d="M86,13.6H28.4a18.4,18.4,0,0,0-6.9,35.5v9.7a2,2,0,0,0,2,2,2,2,0,0,0,1.4-.6l9.8-9.7H86a18.5,18.5,0,0,0,0-36.9Zm0,34.5H33.7l-1.2,1.2-1.1,1.2h0L23.9,58V47.4l-2-.7a16.1,16.1,0,0,1,6.5-30.8H86a16.1,16.1,0,0,1,0,32.2Z" transform="translate(-10 -13.6)"/><path id="Trazado_35" data-name="Trazado 35" class="cls-6" d="M64.5,32A16.2,16.2,0,0,1,48.4,48.1H33.7l-1.2,1.2-1.1,1.2-1.8,1.8L23.9,58V47.4l-2-.7a16.1,16.1,0,0,1,6.5-30.8h20A16.2,16.2,0,0,1,64.5,32Z" transform="translate(-10 -13.6)"/></g><path id="Rect치ngulo_1" data-name="Rect치ngulo 1" class="cls-7" d="M66.2,40.9H83.3a1.8,1.8,0,0,1,1.8,1.8h0a1.8,1.8,0,0,1-1.8,1.8H66.2a1.8,1.8,0,0,1-1.7-1.8h0A1.8,1.8,0,0,1,66.2,40.9Z" transform="translate(-10 -13.6)"/><path id="Rect치ngulo_2" data-name="Rect치ngulo 2" class="cls-7" d="M88.7,40.9h0a1.8,1.8,0,0,1,1.8,1.8h0a1.8,1.8,0,0,1-1.8,1.8h0a1.8,1.8,0,0,1-1.8-1.8h0A1.8,1.8,0,0,1,88.7,40.9Z" transform="translate(-10 -13.6)"/></g></g></svg>